<svg version="1.1" id="Layer_1" xmlns="http://www.w3.org/2000/svg" xmlns:xlink="http://www.w3.org/1999/xlink" x="0px" y="0px"
	 width="100%" viewBox="0 0 1024 1024" enable-background="new 0 0 1024 1024" xml:space="preserve">
<path fill="#000000" opacity="1.000000" stroke="none" 
	d="
M450.647919,651.031372 
	C450.635071,648.038147 450.630737,645.538635 450.618256,643.039124 
	C450.581238,635.633362 450.581299,635.566895 457.751556,635.709290 
	C479.653961,636.144348 499.478119,630.100403 517.073975,616.928406 
	C518.329712,615.988342 519.435608,614.483765 522.313171,614.993225 
	C522.313171,619.748535 522.305542,624.650635 522.315430,629.552673 
	C522.324158,633.885193 522.322144,638.218201 522.382996,642.550171 
	C522.423157,645.411560 523.608215,647.408508 526.749695,647.558289 
	C549.586121,648.647400 571.747375,646.979553 590.996765,632.540955 
	C606.942993,620.580017 618.588318,605.654968 623.821228,586.158875 
	C625.295471,580.666382 625.927612,575.042786 625.981628,569.375122 
	C626.013489,566.027466 627.140808,563.441589 629.402283,560.881165 
	C633.582520,556.148254 637.301880,551.007629 641.195251,546.022766 
	C641.897217,545.124023 642.883118,544.180115 641.769287,542.972290 
	C640.764648,541.882874 639.626282,542.387939 638.573486,542.948975 
	C634.959534,544.874695 631.358887,546.825439 627.831421,548.724487 
	C625.182495,545.780762 625.922729,542.560120 625.327515,539.709534 
	C621.258362,520.221375 610.792847,504.894714 595.117493,492.935883 
	C589.048767,488.306000 589.046021,488.381195 593.418701,482.028503 
	C600.877563,471.192139 608.297913,460.329163 615.703979,449.456665 
	C616.797852,447.850800 618.268555,446.354919 617.979004,444.096405 
	C615.527283,442.322784 614.314880,444.601074 612.885315,445.682129 
	C599.467529,455.828949 586.111755,466.057739 572.693237,476.203522 
	C567.486084,480.140686 560.050354,477.714478 558.203125,471.704346 
	C553.278137,455.680420 543.928711,442.472107 531.847778,431.110229 
	C523.938416,423.671600 515.327454,417.116791 505.904907,411.660034 
	C504.722076,410.975037 502.945068,410.682800 502.996002,408.610260 
	C504.517670,407.126190 506.449677,407.790710 508.166016,407.779938 
	C523.163574,407.685822 538.185486,407.136749 553.153687,407.788940 
	C572.301392,408.623138 589.608154,402.867249 606.407959,394.775940 
	C613.150391,391.528595 619.616089,387.703033 626.176270,384.083557 
	C627.562500,383.318726 629.335205,382.922668 629.940674,380.775574 
	C626.105652,378.566284 621.610229,378.926117 617.559875,377.663330 
	C615.678833,377.076935 614.768494,379.107178 613.703613,380.333130 
	C607.768250,387.166504 597.170227,388.527832 590.958496,383.241882 
	C584.527527,377.769409 583.615845,365.192047 589.172485,358.603241 
	C594.253052,352.578949 605.044067,352.102203 611.946045,357.591705 
	C614.850891,359.902069 616.252625,363.111664 616.911987,366.588074 
	C617.413757,369.233643 618.909363,370.373474 621.262817,371.399811 
	C638.942749,379.109650 656.722290,386.520264 675.553345,391.022827 
	C678.606873,391.752960 678.993103,393.843018 679.474915,396.528778 
	C681.081238,405.482941 686.326843,411.565948 695.081238,414.268860 
	C703.745178,416.943939 711.197327,414.706726 717.224792,407.985687 
	C723.259216,401.256958 724.252502,390.678528 719.170898,382.433044 
	C717.276367,379.359039 717.697327,377.744690 719.912170,375.186127 
	C728.299683,365.497009 736.570251,355.692413 744.502625,345.629974 
	C748.024170,341.162872 751.141479,338.302094 757.644470,339.534088 
	C764.220032,340.779785 768.915161,336.743439 771.178467,330.222015 
	C773.223022,324.330627 771.071594,317.111603 766.229248,313.615540 
	C761.371033,310.108002 754.274170,310.212708 749.410583,313.863708 
	C744.532715,317.525421 742.417847,324.730652 745.141663,331.007599 
	C746.695618,334.588684 745.773499,336.722382 743.484985,339.402863 
	C734.509766,349.915039 725.681641,360.556152 716.976624,371.293457 
	C714.789490,373.991180 712.993225,375.143524 709.475281,373.388153 
	C698.322083,367.823181 684.127747,372.945160 681.024414,384.808899 
	C680.255493,387.748199 678.005249,387.817291 675.876465,387.179596 
	C664.600891,383.801666 653.374023,380.260712 641.946716,376.719391 
	C642.486267,373.406891 644.776489,371.807373 646.477966,369.932861 
	C652.186523,363.643616 658.137268,357.573242 663.811707,351.254150 
	C667.823608,346.786407 667.446045,345.252655 661.623962,343.320923 
	C648.833801,339.077271 635.910156,335.233795 623.142334,330.926514 
	C619.494080,329.695709 618.018799,331.948639 615.966736,333.824249 
	C611.019897,338.345551 605.296814,339.084045 599.245056,336.627533 
	C593.237061,334.188721 590.192993,329.358246 589.941101,323.008240 
	C589.689331,316.662476 592.477295,311.675842 598.038940,308.543915 
	C607.118408,303.430878 618.300964,308.096405 621.236877,318.114136 
	C621.790100,320.001862 621.716858,322.329224 624.000671,323.088806 
	C634.812561,326.684692 645.657227,330.182190 657.600586,334.076843 
	C653.531921,328.475586 647.666870,326.569611 644.503296,321.615051 
	C646.907593,318.848907 650.231445,318.719666 653.136108,317.868286 
	C690.664917,306.868256 728.217163,295.948120 765.765259,285.014191 
	C772.955566,282.920380 780.134338,280.783234 787.354858,278.798309 
	C792.878418,277.279877 793.227783,277.597412 793.235168,283.527771 
	C793.261353,304.524902 793.253662,325.522095 793.259399,346.519257 
	C793.267639,377.015106 793.285095,407.510925 793.264771,438.006775 
	C793.263489,439.968750 793.681885,441.999115 792.771484,443.889832 
	C790.691162,445.028992 789.636230,443.337372 788.509705,442.295898 
	C783.495178,437.659851 778.543152,432.955627 773.602051,428.240845 
	C766.767944,421.719574 765.804138,421.682953 760.082520,428.980255 
	C749.051880,443.048492 739.549255,458.106201 731.403809,474.018585 
	C718.952026,498.343384 710.602539,524.074707 705.619019,550.878113 
	C703.768494,560.831238 702.797974,570.951172 701.520386,581.007019 
	C698.358154,605.896484 689.944702,628.966248 675.773132,649.546326 
	C654.402527,680.580688 626.764648,703.784912 589.828674,714.421997 
	C579.220459,717.476929 568.417358,719.221802 557.347900,719.211182 
	C524.019043,719.179138 490.690155,719.185181 457.361298,719.157227 
	C450.689972,719.151611 450.645325,719.112610 450.640198,712.518799 
	C450.624329,692.187561 450.645782,671.856384 450.647919,651.031372 
z"/>
<path fill="#000000" opacity="1.000000" stroke="none" 
	d="
M493.522949,574.609619 
	C506.072083,579.625000 519.009888,576.446228 525.772400,566.928284 
	C533.235535,556.424133 532.394775,541.874451 523.771790,532.305176 
	C514.160522,521.639160 501.963593,520.984985 484.321045,530.366699 
	C482.993439,527.314819 484.583069,524.472290 485.034180,521.745300 
	C489.169098,496.751465 473.836487,477.794189 448.453461,477.253784 
	C430.629272,476.874237 412.793396,477.008484 394.962646,476.992920 
	C389.105743,476.987793 388.393066,477.698273 388.437408,483.737152 
	C388.499756,492.229492 388.813812,500.719757 388.960876,509.211914 
	C388.997253,511.312958 389.206818,513.482544 387.755310,516.594543 
	C380.496552,504.292480 375.805664,491.575531 368.796661,480.324585 
	C365.627838,481.314178 364.958038,483.530823 363.908813,485.344391 
	C351.562744,506.684509 339.252014,528.045105 326.930664,549.399536 
	C326.347839,550.409546 325.772064,551.424438 325.159241,552.416260 
	C324.180664,554.000000 323.194458,555.635864 320.907684,555.164307 
	C318.329651,554.632629 318.775146,552.482849 318.763672,550.754944 
	C318.694122,540.256592 318.696136,529.757629 318.693817,519.258911 
	C318.686157,484.596283 318.683014,449.933655 318.687439,415.271027 
	C318.688324,408.321167 318.980652,408.332886 326.118622,408.381195 
	C339.442596,408.471466 352.773926,407.935272 366.093140,408.171234 
	C394.739960,408.678772 423.381195,407.787384 452.036804,408.507599 
	C502.736511,409.781921 544.675720,444.910248 554.345520,494.766632 
	C560.143677,524.660767 557.502136,553.302429 540.924927,579.361511 
	C524.028381,605.922607 499.208954,621.174683 468.116089,625.195007 
	C445.271790,628.148682 422.187256,625.939087 399.213470,626.306519 
	C388.951202,626.470642 389.029938,626.335815 389.068970,636.713867 
	C389.164185,662.043762 389.097992,687.374634 389.295776,712.703552 
	C389.331604,717.290771 388.117004,719.246765 383.134125,719.180359 
	C363.639435,718.920471 344.139435,718.931519 324.642731,719.052185 
	C320.180023,719.079834 318.578613,717.693115 318.598053,713.017029 
	C318.759460,674.188904 318.758514,635.359375 318.582672,596.531372 
	C318.561340,591.818054 320.141235,590.352295 324.622772,590.652344 
	C329.102325,590.952148 333.647247,590.399292 338.108551,590.813049 
	C342.669495,591.236023 345.089600,589.244751 347.095184,585.436584 
	C352.605743,574.973450 358.388428,564.653564 364.074341,554.282959 
	C364.856567,552.856262 365.357910,551.218079 367.522644,549.723145 
	C376.734192,564.939514 383.230255,581.483582 393.251190,597.216125 
	C397.158661,591.186279 400.518341,586.092163 403.784119,580.938660 
	C407.618561,574.887756 411.464508,568.840393 415.117340,562.679871 
	C416.746857,559.931702 418.786469,558.766479 422.011658,558.836731 
	C430.507019,559.021729 439.009308,558.865112 447.506561,558.994690 
	C451.143402,559.050171 454.411896,558.266357 457.651550,555.831299 
	C456.033661,554.133484 454.033691,554.371704 452.180878,554.357239 
	C445.681976,554.306458 439.175476,554.138733 432.686066,554.387146 
	C429.026794,554.527283 426.786682,553.315552 425.248993,549.967529 
	C423.953400,547.146545 422.883759,544.087158 419.711090,541.325562 
	C411.341034,554.636353 403.085876,567.764465 394.100281,582.054138 
	C385.053558,565.177002 377.407562,548.885132 368.418671,533.478210 
	C365.705292,534.453918 365.095856,536.299011 364.207397,537.841248 
	C356.807648,550.686523 349.341492,563.495850 342.146881,576.455627 
	C340.106537,580.130981 337.623383,581.501953 333.411102,581.427002 
	C319.750458,581.183899 306.079651,581.511230 292.419159,581.264832 
	C287.662903,581.179077 285.682098,582.667786 286.092499,587.523682 
	C286.278381,589.722595 286.796295,592.167236 284.758545,594.924622 
	C271.294342,588.009399 257.920868,580.887817 243.354965,572.194580 
	C257.872803,564.450012 271.078125,557.405640 284.332764,550.334961 
	C287.058472,553.281616 286.038605,556.436523 286.058563,559.261963 
	C286.083038,562.730347 287.442108,563.936462 290.849030,563.889832 
	C302.179230,563.734558 313.512665,563.722778 324.843872,563.800842 
	C327.691376,563.820435 329.346252,562.756653 330.784698,560.279541 
	C341.410278,541.981628 352.088989,523.716614 362.000824,505.015076 
	C363.379639,502.413513 364.416748,499.552399 367.631592,496.687866 
	C376.726654,513.734436 385.637695,530.436096 394.950317,547.890381 
	C404.475647,535.834900 410.762268,522.755554 419.129974,511.421051 
	C421.709534,511.966522 422.268433,513.682983 423.119781,515.051514 
	C427.167847,521.559021 431.297394,528.021912 435.120819,534.660217 
	C436.818207,537.607178 438.826660,538.868652 442.293304,538.802490 
	C452.955017,538.598938 463.622772,538.698975 474.288116,538.714111 
	C476.084656,538.716675 477.963348,538.340942 480.103729,539.771790 
	C476.133850,554.260010 478.835938,566.616882 493.522949,574.609619 
z"/>
</svg>