<?xml version="1.0" encoding="UTF-8"?>
<svg version="1.1" xmlns="http://www.w3.org/2000/svg" width="1024" height="1024">
<path d="M0 0 C0 54.45 0 108.9 0 165 C-5.42349364 160.93237977 -10.02918333 157.1961018 -14.625 152.375 C-18.50106437 148.31168614 -22.20562438 144.9514925 -27 142 C-27.24234375 142.55945313 -27.4846875 143.11890625 -27.734375 143.6953125 C-29.25586649 146.46592972 -31.13872131 148.51903669 -33.25 150.875 C-57.05708488 178.71905349 -73.51533857 215.57542407 -82 251 C-82.21495117 251.88171875 -82.42990234 252.7634375 -82.65136719 253.671875 C-85.664462 266.1196961 -88.16645966 278.45736673 -89.41796875 291.21875 C-93.32141277 330.43256073 -108.157571 364.90625258 -135.55078125 393.48779297 C-136.88597708 394.88102123 -138.20919482 396.28570251 -139.53125 397.69140625 C-159.79050037 418.70708967 -192.72075208 438.6299346 -222.78981018 439.24050903 C-224.99471755 439.24625106 -227.19967104 439.24111675 -229.40454102 439.22705078 C-230.615298 439.22734283 -231.82605499 439.22763489 -233.07350159 439.22793579 C-236.36632144 439.22678792 -239.65896739 439.2168141 -242.9517529 439.20278788 C-246.40304373 439.19021586 -249.85433861 439.18910495 -253.3056488 439.18673706 C-259.82900272 439.18054119 -266.35228894 439.16415623 -272.87561315 439.14403808 C-281.03750511 439.11941733 -289.19940825 439.1085263 -297.36132812 439.09765625 C-311.9076047 439.07822333 -326.45373375 439.03815136 -341 439 C-341 411.94 -341 384.88 -341 357 C-330.11 356.505 -330.11 356.505 -319 356 C-303.15119225 353.44807333 -286.89274593 348.0797896 -274.29296875 337.7890625 C-272 336 -272 336 -270 336 C-270 346.89 -270 357.78 -270 369 C-264.84375 368.896875 -259.6875 368.79375 -254.375 368.6875 C-251.98193604 368.65015747 -251.98193604 368.65015747 -249.54052734 368.61206055 C-237.51533923 368.3069394 -225.85979212 366.90647992 -214.8125 361.8125 C-214.14524902 361.51134277 -213.47799805 361.21018555 -212.79052734 360.89990234 C-206.61155575 358.00448533 -201.2530635 354.3558011 -196 350 C-195.14921875 349.31164062 -194.2984375 348.62328125 -193.421875 347.9140625 C-178.05035971 334.8529897 -169.43655 317.62607743 -166 298 C-165.90665985 295.70938218 -165.84209578 293.41732774 -165.8125 291.125 C-165.46257203 284.7796395 -163.15217047 282.10002461 -158.6953125 277.7578125 C-155.42101172 274.4075859 -152.7350049 270.7933681 -150 267 C-149.27901123 266.0102417 -149.27901123 266.0102417 -148.54345703 265.00048828 C-146.07793529 261.62108232 -146.07793529 261.62108232 -144 258 C-144.56509277 258.33322266 -145.13018555 258.66644531 -145.71240234 259.00976562 C-148.26398724 260.51100669 -150.819419 262.0055726 -153.375 263.5 C-154.70917969 264.28697266 -154.70917969 264.28697266 -156.0703125 265.08984375 C-157.34648438 265.83427734 -157.34648438 265.83427734 -158.6484375 266.59375 C-159.43395996 267.05458984 -160.21948242 267.51542969 -161.02880859 267.99023438 C-163 269 -163 269 -165 269 C-165.24234375 267.81664062 -165.4846875 266.63328125 -165.734375 265.4140625 C-170.55567333 242.42223748 -180.88228482 223.41181012 -201 210 C-199.53408156 205.87568023 -197.51621451 202.55554301 -195.0625 198.9375 C-194.64500488 198.3197168 -194.22750977 197.70193359 -193.79736328 197.06542969 C-192.80498881 195.59868029 -191.81031285 194.13348671 -190.81396484 192.66943359 C-189.07589408 190.11168585 -187.34472782 187.54935953 -185.61552429 184.98561096 C-183.95557398 182.52513225 -182.29343516 180.06613697 -180.63082886 177.60745239 C-179.8049768 176.38596359 -178.97954549 175.16419018 -178.15457153 173.94210815 C-172.91367785 166.18335925 -167.56407032 158.53224782 -162 151 C-162.33 151.33 -162.66 151.66 -163 152 C-171.43333452 160.12328545 -180.37200698 167.25229502 -189.72509766 174.27783203 C-192.84045674 176.63625047 -195.92139591 179.03735978 -198.99951172 181.4440918 C-200.53002563 182.63906872 -202.06416478 183.82941828 -203.60205078 185.01489258 C-206.94800279 187.59487287 -210.2535318 190.18837017 -213.44921875 192.953125 C-221.6218917 199.77589422 -221.6218917 199.77589422 -227.375 199.5625 C-231.10539675 198.36663119 -231.89149748 197.21030122 -233.70703125 193.69140625 C-234.78075653 190.91221052 -235.6863013 188.09078861 -236.58203125 185.25 C-243.91450944 162.13282738 -266.677862 142.73349094 -287.5234375 131.7421875 C-288.01070313 131.49726563 -288.49796875 131.25234375 -289 131 C-289 130.34 -289 129.68 -289 129 C-288.16887192 128.99635437 -287.33774384 128.99270874 -286.48143005 128.98895264 C-278.5833022 128.95081745 -270.68557663 128.89368077 -262.78773403 128.81609726 C-258.72899889 128.77687283 -254.67047258 128.74456354 -250.61157227 128.72900391 C-246.68200922 128.71366983 -242.75302132 128.67893656 -238.82371712 128.63169098 C-237.33735261 128.61704733 -235.85090592 128.60896897 -234.36446953 128.60811615 C-219.56120697 128.5911084 -206.85183835 125.20061055 -193.1875 119.375 C-192.17212158 118.94840088 -191.15674316 118.52180176 -190.1105957 118.08227539 C-181.89116462 114.55155203 -174.1042361 110.44486591 -166.38671875 105.93359375 C-163 104 -163 104 -160 103 C-160 102.34 -160 101.68 -160 101 C-161.08667969 100.81824219 -161.08667969 100.81824219 -162.1953125 100.6328125 C-167.28497573 99.75060421 -172.14883346 98.83557653 -177 97 C-177.3403125 97.8353125 -177.3403125 97.8353125 -177.6875 98.6875 C-179.95600449 102.68438886 -182.61899946 105.53966649 -187 107 C-191.80884896 107.65236323 -195.74785403 107.61472243 -199.875 104.875 C-203.67275484 101.71167289 -205.60444469 98.64444278 -206.34765625 93.67578125 C-206.73001234 87.2737678 -205.22038542 82.85047113 -201 78 C-196.09285599 74.72857066 -190.72826086 75.34435568 -185 76 C-181.12448161 77.41226517 -178.87121884 79.3833701 -176.91796875 83.0078125 C-175.64161828 86.16663422 -175 88.57138062 -175 92 C-173.75283203 92.29003906 -173.75283203 92.29003906 -172.48046875 92.5859375 C-171.39378906 92.84632813 -170.30710937 93.10671875 -169.1875 93.375 C-167.56908203 93.75785156 -167.56908203 93.75785156 -165.91796875 94.1484375 C-163 95 -163 95 -160 97 C-160 97.99 -160 98.98 -160 100 C-158.90945313 100.26039063 -157.81890625 100.52078125 -156.6953125 100.7890625 C-150.32686367 102.38187454 -144.07819114 104.37547154 -137.81347656 106.33032227 C-133.39495293 107.69972568 -129.00635993 109.04817966 -124.4921875 110.06640625 C-115.69709054 112.11369918 -115.69709054 112.11369918 -113.6328125 114.73828125 C-112.84771179 116.82244036 -112.41717304 118.81480787 -112 121 C-109.60962984 127.61377028 -106.04066398 131.41529386 -100 135 C-93.8611364 137.04628787 -86.49983235 137.10571965 -80.5625 134.375 C-75.92044506 131.63416091 -73.10844285 128.21688569 -70.6875 123.375 C-69.36686884 116.89190159 -68.41888328 109.79706771 -72.125 104 C-72.74375 103.01 -73.3625 102.02 -74 101 C-72.73851862 96.81040857 -69.27688598 93.66361553 -66.4375 90.4375 C-65.34539299 89.18052196 -64.25425591 87.92270059 -63.1640625 86.6640625 C-62.62555664 86.04305664 -62.08705078 85.42205078 -61.53222656 84.78222656 C-59.41915032 82.32437816 -57.36102023 79.82428983 -55.3125 77.3125 C-54.23548828 76.013125 -54.23548828 76.013125 -53.13671875 74.6875 C-51.63628411 72.80029885 -50.20631682 70.85595217 -48.83203125 68.875 C-43.36056849 61.28274018 -43.36056849 61.28274018 -39.19921875 60.41796875 C-36.3125 60.5 -36.3125 60.5 -33.51953125 60.80078125 C-29.23101567 61.13987318 -26.54983863 59.16237898 -23.25 56.6875 C-19.99015878 52.28671435 -19.42968275 47.32296097 -20 42 C-22.73885123 36.91356199 -25.5101208 33.82995973 -31 32 C-36.23503836 31.60490277 -39.59928724 32.06619149 -44 35 C-48.27708955 39.50219953 -48.41987886 43.39854026 -48.3359375 49.31640625 C-47.97994665 52.16019364 -47.17654619 54.39747983 -46 57 C-46.61746094 57.66644531 -47.23492188 58.33289063 -47.87109375 59.01953125 C-53.34146138 64.97282327 -58.59413784 71.03639657 -63.66210938 77.33984375 C-65.85252841 80.05788197 -68.05771867 82.76390072 -70.26049805 85.47192383 C-72.84233977 88.64631939 -75.42121836 91.82311841 -78 95 C-79.00160156 94.6803125 -80.00320313 94.360625 -81.03515625 94.03125 C-87.81530675 92.10818996 -95.93595634 91.37808273 -102.57421875 94.02734375 C-107.723288 97.56794184 -110.35623359 102.4667824 -113 108 C-120.20946775 106.49016382 -127.24541785 104.57116203 -134.3125 102.5 C-135.38306641 102.19191406 -136.45363281 101.88382812 -137.55664062 101.56640625 C-138.58595703 101.26605469 -139.61527344 100.96570313 -140.67578125 100.65625 C-141.60302002 100.38619141 -142.53025879 100.11613281 -143.4855957 99.83789062 C-145.79692552 99.06767178 -147.85774399 98.15190571 -150 97 C-146.1661084 92.42062948 -142.18469758 88.00331638 -138.125 83.625 C-129.69970523 75.41466363 -129.69970523 75.41466363 -123 66 C-124.8871875 65.443125 -124.8871875 65.443125 -126.8125 64.875 C-131.93217166 63.33982264 -137.02937984 61.73771908 -142.125 60.125 C-142.93960693 59.8674292 -143.75421387 59.6098584 -144.59350586 59.34448242 C-147.84476452 58.31610455 -151.09590379 57.28737613 -154.34570312 56.25439453 C-156.5214076 55.5631062 -158.6981029 54.87502178 -160.875 54.1875 C-162.13054687 53.78917969 -163.38609375 53.39085937 -164.6796875 52.98046875 C-165.77539062 52.65691406 -166.87109375 52.33335937 -168 52 C-168.89589844 51.73058594 -169.79179688 51.46117187 -170.71484375 51.18359375 C-173.05163129 50.77175663 -173.05163129 50.77175663 -174.94921875 52.1796875 C-175.80966797 53.01886719 -175.80966797 53.01886719 -176.6875 53.875 C-180.94955415 57.9385993 -183.59348991 58.35349364 -189.45703125 58.27734375 C-193.23091373 57.86575288 -195.24007187 56.55798217 -198 54 C-201.07992689 49.68810235 -201.58163843 45.64382953 -201.41796875 40.46875 C-200.55018789 35.34316584 -197.55476652 32.30264222 -193.6875 29.0625 C-188.40193198 26.97285683 -183.85974373 27.35493846 -178.75 29.5625 C-174.46642183 31.93572013 -172.95062031 34.55258569 -171 39 C-170.63557767 40.66014616 -170.29570582 42.32624764 -170 44 C-169.08863281 44.27972656 -168.17726563 44.55945313 -167.23828125 44.84765625 C-158.05602694 47.68416653 -148.93014227 50.66373398 -139.83325195 53.76391602 C-138.97304443 54.05451904 -138.11283691 54.34512207 -137.2265625 54.64453125 C-136.45908691 54.90596924 -135.69161133 55.16740723 -134.90087891 55.43676758 C-133.01082885 56.09469751 -133.01082885 56.09469751 -131 56 C-131.98742187 55.24074219 -132.97484375 54.48148437 -133.9921875 53.69921875 C-135.28664112 52.69554819 -136.58090193 51.69162894 -137.875 50.6875 C-138.52597656 50.18798828 -139.17695312 49.68847656 -139.84765625 49.17382812 C-140.47285156 48.68720703 -141.09804688 48.20058594 -141.7421875 47.69921875 C-142.3182373 47.25408936 -142.89428711 46.80895996 -143.48779297 46.3503418 C-145 45 -145 45 -147 42 C-140.94887417 39.94790251 -134.87284063 38.01395771 -128.75 36.1875 C-127.89083984 35.93033203 -127.03167969 35.67316406 -126.14648438 35.40820312 C-119.0695277 33.29897238 -111.97121541 31.26872396 -104.8671875 29.25292969 C-97.16047066 27.06040305 -89.4873011 24.76340323 -81.81640625 22.44921875 C-77.11226589 21.03066057 -72.40150163 19.63540079 -67.6875 18.25 C-67.01235352 18.05140381 -66.33720703 17.85280762 -65.64160156 17.64819336 C-62.6395175 16.76711414 -59.63504075 15.8965104 -56.625 15.04296875 C-53.03307939 14.00951745 -49.45765234 12.93046824 -45.88183594 11.84301758 C-38.44811819 9.58478918 -31.03107325 7.45565394 -23.47265625 5.6484375 C-19.86139106 4.70140745 -16.47760675 3.35567721 -13 2 C-8.16275463 0.41538514 -5.24326426 0 0 0 Z " fill="#F49F25" transform="translate(791,278)"/>
<path d="M0 0 C34.3715625 -0.0928125 34.3715625 -0.0928125 69.4375 -0.1875 C76.64392334 -0.21481201 83.85034668 -0.24212402 91.27514648 -0.27026367 C100.14855957 -0.28381348 100.14855957 -0.28381348 104.31678772 -0.28633118 C107.19694609 -0.28909998 110.07693464 -0.30023621 112.95704651 -0.31672668 C134.51969205 -0.43476639 153.93575035 0.23955297 174 9 C174.92256592 9.4024292 174.92256592 9.4024292 175.86376953 9.81298828 C193.64495403 17.75110191 209.92640577 31.16165636 220 48 C220.96486328 49.59134766 220.96486328 49.59134766 221.94921875 51.21484375 C226.14003459 58.43085783 229.21826433 65.8438192 231.875 73.75 C232.16117188 74.60053955 232.44734375 75.4510791 232.7421875 76.32739258 C236.38680582 87.68506583 237.41283916 98.52902494 237.375 110.4375 C237.3737915 111.14142883 237.37258301 111.84535767 237.37133789 112.57061768 C237.22404157 144.27435339 226.37669268 168.58327452 204.01171875 190.9921875 C190.64027294 203.41875598 173.59242892 210.85173166 156 215 C154.94073807 215.25470566 154.94073807 215.25470566 153.8600769 215.51455688 C145.03228264 217.38902071 136.27163811 217.25476425 127.30078125 217.1953125 C125.80285796 217.19236473 124.3049326 217.19032882 122.80700684 217.18920898 C117.30880607 217.17880664 111.81064967 217.15088443 106.3125 217.125 C93.999375 217.08375 81.68625 217.0425 69 217 C69 247.36 69 277.72 69 309 C46.23 309 23.46 309 0 309 C0 267.09 0 225.18 0 182 C8.58 182 17.16 182 26 182 C26.66 180.35 27.32 178.7 28 177 C28.91728727 175.20294164 29.86197812 173.41970679 30.828125 171.6484375 C31.38113281 170.63136719 31.93414062 169.61429688 32.50390625 168.56640625 C33.08011719 167.51324219 33.65632813 166.46007812 34.25 165.375 C35.09111328 163.83005859 35.09111328 163.83005859 35.94921875 162.25390625 C37.63009138 159.16777752 39.31475543 156.08374311 41 153 C42.14080242 150.90895095 43.28143779 148.81781075 44.421875 146.7265625 C45.28125 145.15104167 46.140625 143.57552083 47 142 C50 143 50 143 51.26757812 144.99926758 C51.8930957 146.3086731 51.8930957 146.3086731 52.53125 147.64453125 C53.00723633 148.62276855 53.48322266 149.60100586 53.97363281 150.60888672 C54.47733398 151.6660791 54.98103516 152.72327148 55.5 153.8125 C59.97376821 163.01011425 64.65462974 172.03033598 69.69726562 180.92895508 C70.13232422 181.70263428 70.56738281 182.47631348 71.015625 183.2734375 C71.40008789 183.94810059 71.78455078 184.62276367 72.18066406 185.31787109 C73 187 73 187 73 189 C77.00682053 185.45908884 79.41759181 181.28794442 82.125 176.75 C82.62394775 175.96310791 83.12289551 175.17621582 83.63696289 174.36547852 C86.11448065 170.41749016 88.20172966 166.72445887 89.67578125 162.29296875 C91.52618388 157.37869631 93.20020294 153.54603707 98 151 C105.58768239 149.58253155 113.22001166 149.63455411 120.91381836 149.89038086 C121.69937103 149.91404221 122.48492371 149.93770355 123.29428101 149.96208191 C124.77966111 150.01676252 126.26447072 150.09358903 127.7472229 150.19746399 C134.29726861 150.49441767 136.21885299 149.01384312 143 146 C126.17 145.505 126.17 145.505 109 145 C106.69 140.71 104.38 136.42 102 132 C101.34 131.67 100.68 131.34 100 131 C99.60494263 132.07193604 99.60494263 132.07193604 99.2019043 133.16552734 C97.95434696 136.1076644 96.47343848 138.64953959 94.76953125 141.3515625 C94.13080078 142.36863281 93.49207031 143.38570312 92.83398438 144.43359375 C91.83334961 146.01333984 91.83334961 146.01333984 90.8125 147.625 C90.16474609 148.65496094 89.51699219 149.68492187 88.84960938 150.74609375 C87.55177397 152.80759054 86.24988329 154.86654014 84.94384766 156.92285156 C83.62223623 159.01498801 82.31509879 161.11632306 81.02099609 163.22558594 C80.39918457 164.23137695 79.77737305 165.23716797 79.13671875 166.2734375 C78.58072998 167.18270996 78.02474121 168.09198242 77.4519043 169.02880859 C76.97277588 169.67930176 76.49364746 170.32979492 76 171 C75.34 171 74.68 171 74 171 C73.59797363 170.18547363 73.19594727 169.37094727 72.78173828 168.53173828 C65.18334083 153.16368136 57.55940123 137.86314849 49 123 C46.26188742 126.2848479 43.99469406 129.54483637 41.93359375 133.2890625 C41.36447266 134.31515625 40.79535156 135.34125 40.20898438 136.3984375 C39.62439453 137.46320313 39.03980469 138.52796875 38.4375 139.625 C36.67048923 142.82809005 34.89849682 146.01795787 33.04760742 149.17358398 C31.41998909 152.04453064 30.22543184 154.94721855 29.0559082 158.03149414 C26.83433723 163.38371525 24.62546839 168.32901621 20 172 C11.2184283 175.08368034 1.42601818 173.77924111 -7.6875 173.1875 C-10.23861811 173.09210234 -12.79007817 173.00542596 -15.34179688 172.92773438 C-21.56968763 172.71917637 -27.78107517 172.39207577 -34 172 C-34 176.29 -34 180.58 -34 185 C-38.30075289 183.5664157 -41.59734319 182.28944737 -45.484375 180.171875 C-46.50273437 179.61886719 -47.52109375 179.06585937 -48.5703125 178.49609375 C-49.61960937 177.91988281 -50.66890625 177.34367188 -51.75 176.75 C-52.78382813 176.18925781 -53.81765625 175.62851562 -54.8828125 175.05078125 C-59.87709131 172.32720099 -64.84466079 169.55721489 -69.765625 166.703125 C-70.58321289 166.23036133 -71.40080078 165.75759766 -72.24316406 165.27050781 C-72.82291992 164.85124023 -73.40267578 164.43197266 -74 164 C-74 163.34 -74 162.68 -74 162 C-73.10023438 161.56171875 -72.20046875 161.1234375 -71.2734375 160.671875 C-61.76311679 155.99590447 -52.44460399 151.02502108 -43.18896484 145.86230469 C-41.83085693 145.11062012 -41.83085693 145.11062012 -40.4453125 144.34375 C-39.63594238 143.89193359 -38.82657227 143.44011719 -37.99267578 142.97460938 C-36 142 -36 142 -34 142 C-34 146.62 -34 151.24 -34 156 C-9.64000505 158.85680869 -9.64000505 158.85680869 13.16650391 153.03369141 C17.79846287 147.87184365 19.87859636 141.67751531 21.91748047 135.13916016 C23.63082473 130.17069364 26.3306925 125.90170453 29.0625 121.4375 C30.04463982 119.73833285 31.01988351 118.03516146 31.98828125 116.328125 C32.47506348 115.47154297 32.9618457 114.61496094 33.46337891 113.73242188 C38.07007184 105.54079376 42.53253993 97.26815292 47 89 C50.60535845 90.20178615 51.05154781 91.4972818 52.72660828 94.75991821 C53.05788223 95.42953583 53.38915619 96.09915344 53.73046875 96.7890625 C54.08458328 97.48454193 54.43869781 98.18002136 54.80354309 98.89657593 C55.94084683 101.13480565 57.06453308 103.37954822 58.1875 105.625 C59.29109194 107.8103498 60.39748253 109.99426323 61.50442505 112.17791748 C62.2379404 113.62599987 62.96977562 115.07493456 63.69992065 116.52471924 C66.56448244 122.19793335 69.53994741 127.80652359 72.60380554 133.37466431 C75 137.7850573 75 137.7850573 75 140 C78.62510978 136.72171166 81.05732133 132.95955905 83.5625 128.8125 C84.43779566 127.39130675 85.314137 125.9707571 86.19140625 124.55078125 C86.64660645 123.81166504 87.10180664 123.07254883 87.57080078 122.31103516 C90.01740117 118.35484805 92.49887853 114.42190145 95 110.5 C95.46865479 109.75210205 95.93730957 109.0042041 96.42016602 108.23364258 C97.55970076 106.45352488 98.77310006 104.72106797 100 103 C100.66 103 101.32 103 102 103 C102.79389164 104.85725891 103.50517825 106.74986457 104.18359375 108.65234375 C109.04270074 120.37461942 109.04270074 120.37461942 118 129 C131.22982636 133.43097832 147.34155693 131.18635604 161 130 C160.83918945 130.75684082 160.67837891 131.51368164 160.51269531 132.29345703 C159.0114128 140.21879888 158.67009244 149.01627813 163 156 C166.97522505 161.5211459 171.24410091 166.24435517 178 168 C187.29184306 168.88819088 196.46529277 168.08182647 204 162 C211.00587488 153.32905172 212.03403565 145.04986676 211.32568359 134.17431641 C210.37919685 127.85541767 205.92397118 123.87463858 201.5625 119.625 C200.716875 119.08875 199.87125 118.5525 199 118 C198.46246094 117.63132812 197.92492187 117.26265625 197.37109375 116.8828125 C191.30008918 113.2072565 184.92160209 112.97864164 178 114 C175.33826428 115.08649947 173.09360338 116.31225006 170.70703125 117.90625 C169 119 169 119 167 119 C166.67 119.99 166.34 120.98 166 122 C164.98922903 118.85537921 165.19565905 117.14710619 166 114 C167.10535602 101.26324934 166.6771105 90.50298555 158.4375 80.25 C149.43799083 70.81637721 138.65095846 68.04913132 125.98974609 67.68115234 C123.33396197 67.63994453 120.67932157 67.60830603 118.0234375 67.5859375 C116.60282312 67.5671871 115.18221943 67.54761093 113.7616272 67.5272522 C110.05627801 67.47633322 106.35089288 67.43649472 102.64538574 67.39910889 C98.18138841 67.35170637 93.7175638 67.29028414 89.25370789 67.23126221 C82.5025432 67.14354159 75.75140332 67.07342682 69 67 C69 79.87 69 92.74 69 106 C66.24725637 102.32967516 64.21806197 98.69349688 62.20703125 94.609375 C61.85613937 93.90476135 61.5052475 93.20014771 61.14372253 92.47418213 C60.02952885 90.23464584 58.92094645 87.99238549 57.8125 85.75 C57.05570781 84.22637902 56.29855035 82.70293943 55.54101562 81.1796875 C53.68977321 77.45521242 51.84355652 73.72828506 50 70 C49.34 70 48.68 70 48 70 C47.63350342 70.65782471 47.26700684 71.31564941 46.8894043 71.9934082 C39.47671513 85.28907389 32.0071783 98.54480992 24.33984375 111.6953125 C22.93862587 114.10557067 21.54639706 116.52084108 20.15625 118.9375 C17.87214901 122.90813557 15.57320567 126.86979194 13.26367188 130.82568359 C12.05524668 132.90494069 10.86327065 134.99298768 9.671875 137.08203125 C8.96975832 138.28444351 8.26670001 139.48630666 7.5625 140.6875 C6.96566406 141.72261719 6.36882812 142.75773438 5.75390625 143.82421875 C5.17511719 144.54222656 4.59632813 145.26023437 4 146 C2.68 146 1.36 146 0 146 C0 97.82 0 49.64 0 0 Z " fill="#1D3E6E" transform="translate(318,408)"/>
<path d="M0 0 C3.60535845 1.20178615 4.05154781 2.4972818 5.72660828 5.75991821 C6.05788223 6.42953583 6.38915619 7.09915344 6.73046875 7.7890625 C7.08458328 8.48454193 7.43869781 9.18002136 7.80354309 9.89657593 C8.94084683 12.13480565 10.06453308 14.37954822 11.1875 16.625 C12.29109194 18.8103498 13.39748253 20.99426323 14.50442505 23.17791748 C15.2379404 24.62599987 15.96977562 26.07493456 16.69992065 27.52471924 C19.56448244 33.19793335 22.53994741 38.80652359 25.60380554 44.37466431 C28 48.7850573 28 48.7850573 28 51 C31.62510978 47.72171166 34.05732133 43.95955905 36.5625 39.8125 C37.43779566 38.39130675 38.314137 36.9707571 39.19140625 35.55078125 C39.64660645 34.81166504 40.10180664 34.07254883 40.57080078 33.31103516 C43.01740117 29.35484805 45.49887853 25.42190145 48 21.5 C48.46865479 20.75210205 48.93730957 20.0042041 49.42016602 19.23364258 C50.55970076 17.45352488 51.77310006 15.72106797 53 14 C53.66 14 54.32 14 55 14 C55.79389164 15.85725891 56.50517825 17.74986457 57.18359375 19.65234375 C62.04270074 31.37461942 62.04270074 31.37461942 71 40 C84.22982636 44.43097832 100.34155693 42.18635604 114 41 C111.98048098 48.72622406 111.98048098 48.72622406 108 51.375 C107.29875 51.85710938 106.5975 52.33921875 105.875 52.8359375 C101.60817711 55.48492338 97.73561268 55.12618254 92.8359375 55.09765625 C91.92872955 55.0962413 91.02152161 55.09482635 90.08682251 55.09336853 C87.18284845 55.08776096 84.27895085 55.07520718 81.375 55.0625 C79.40885528 55.05748598 77.44270935 55.0529229 75.4765625 55.04882812 C70.6510121 55.03778906 65.82551903 55.02051935 61 55 C60.59007812 54.14535156 60.18015625 53.29070313 59.7578125 52.41015625 C59.21898437 51.30542969 58.68015625 50.20070313 58.125 49.0625 C57.59132813 47.96035156 57.05765625 46.85820313 56.5078125 45.72265625 C55.28340155 42.90595489 55.28340155 42.90595489 53 42 C52.60494263 43.07193604 52.60494263 43.07193604 52.2019043 44.16552734 C50.95434696 47.1076644 49.47343848 49.64953959 47.76953125 52.3515625 C47.13080078 53.36863281 46.49207031 54.38570312 45.83398438 55.43359375 C44.83334961 57.01333984 44.83334961 57.01333984 43.8125 58.625 C43.16474609 59.65496094 42.51699219 60.68492187 41.84960938 61.74609375 C40.55177397 63.80759054 39.24988329 65.86654014 37.94384766 67.92285156 C36.62223623 70.01498801 35.31509879 72.11632306 34.02099609 74.22558594 C33.39918457 75.23137695 32.77737305 76.23716797 32.13671875 77.2734375 C31.58072998 78.18270996 31.02474121 79.09198242 30.4519043 80.02880859 C29.97277588 80.67930176 29.49364746 81.32979492 29 82 C28.34 82 27.68 82 27 82 C26.59797363 81.18547363 26.19594727 80.37094727 25.78173828 79.53173828 C18.18334083 64.16368136 10.55940123 48.86314849 2 34 C-0.73811258 37.2848479 -3.00530594 40.54483637 -5.06640625 44.2890625 C-5.63552734 45.31515625 -6.20464844 46.34125 -6.79101562 47.3984375 C-7.37560547 48.46320312 -7.96019531 49.52796875 -8.5625 50.625 C-10.32951077 53.82809005 -12.10150318 57.01795787 -13.95239258 60.17358398 C-15.58001091 63.04453064 -16.77456816 65.94721855 -17.9440918 69.03149414 C-20.16566277 74.38371525 -22.37453161 79.32901621 -27 83 C-35.7815717 86.08368034 -45.57398182 84.77924111 -54.6875 84.1875 C-57.23861811 84.09210234 -59.79007817 84.00542596 -62.34179688 83.92773438 C-68.56968763 83.71917637 -74.78107517 83.39207577 -81 83 C-81 87.29 -81 91.58 -81 96 C-85.30075289 94.5664157 -88.59734319 93.28944737 -92.484375 91.171875 C-93.50273437 90.61886719 -94.52109375 90.06585937 -95.5703125 89.49609375 C-96.61960937 88.91988281 -97.66890625 88.34367188 -98.75 87.75 C-99.78382813 87.18925781 -100.81765625 86.62851562 -101.8828125 86.05078125 C-106.87709131 83.32720099 -111.84466079 80.55721489 -116.765625 77.703125 C-117.99200684 76.99397949 -117.99200684 76.99397949 -119.24316406 76.27050781 C-120.11279785 75.64160645 -120.11279785 75.64160645 -121 75 C-121 74.34 -121 73.68 -121 73 C-120.10023438 72.56171875 -119.20046875 72.1234375 -118.2734375 71.671875 C-108.76311679 66.99590447 -99.44460399 62.02502108 -90.18896484 56.86230469 C-89.28355957 56.36118164 -88.3781543 55.86005859 -87.4453125 55.34375 C-86.63594238 54.89193359 -85.82657227 54.44011719 -84.99267578 53.97460938 C-83 53 -83 53 -81 53 C-81 57.62 -81 62.24 -81 67 C-56.64000505 69.85680869 -56.64000505 69.85680869 -33.83349609 64.03369141 C-29.20153713 58.87184365 -27.12140364 52.67751531 -25.08251953 46.13916016 C-23.36917527 41.17069364 -20.6693075 36.90170453 -17.9375 32.4375 C-16.95536018 30.73833285 -15.98011649 29.03516146 -15.01171875 27.328125 C-14.52493652 26.47154297 -14.0381543 25.61496094 -13.53662109 24.73242188 C-8.92992816 16.54079376 -4.46746007 8.26815292 0 0 Z " fill="#183564" transform="translate(365,497)"/>
<path d="M0 0 C0.19880968 4.71370104 0.34339537 9.42492968 0.43945312 14.1418457 C0.47951506 15.74351534 0.53398583 17.34489547 0.60351562 18.94555664 C1.16664302 32.24944137 1.16664302 32.24944137 -1.67797852 36.51782227 C-3.69720265 38.27502218 -5.69816801 39.64363308 -8 41 C-9.33003556 42.25246917 -10.64870136 43.51763643 -11.9375 44.8125 C-12.50339844 45.37582031 -13.06929688 45.93914063 -13.65234375 46.51953125 C-15.10165172 47.97715572 -15.10165172 47.97715572 -16 50 C-16.66 50 -17.32 50 -18 50 C-18.2668309 50.58397552 -18.5336618 51.16795105 -18.80857849 51.7696228 C-22.78071508 59.20558296 -30.05517716 65.16796789 -35.99609375 71.0234375 C-37.70520628 72.71992298 -39.41418695 74.41654132 -41.12304688 76.11328125 C-43.79655742 78.7618242 -46.471652 81.40873075 -49.14916992 84.05322266 C-51.74828624 86.62232281 -54.34130229 89.19745374 -56.93359375 91.7734375 C-57.74283798 92.56922211 -58.55208221 93.36500671 -59.385849 94.18490601 C-60.12404373 94.91972198 -60.86223846 95.65453796 -61.62280273 96.41162109 C-62.27675522 97.05811615 -62.9307077 97.70461121 -63.60447693 98.37069702 C-65.21683887 99.89562175 -65.21683887 99.89562175 -65 102 C-66.65 102 -68.3 102 -70 102 C-70 74.94 -70 47.88 -70 20 C-62.74 19.67 -55.48 19.34 -48 19 C-32.28408915 16.46947198 -16.52099835 11.1519083 -3.796875 1.29296875 C-2 0 -2 0 0 0 Z " fill="#E85724" transform="translate(520,615)"/>
<path d="M0 0 C3.93792318 2.56821077 6.74612583 5.61725165 8.875 9.875 C9.30430656 15.34865866 8.54563697 19.06785346 5.875 23.875 C1.89084824 28.23859478 -1.18476723 29.45648197 -6.87890625 29.83203125 C-9.125 29.875 -9.125 29.875 -11.57421875 29.5234375 C-15.48008501 30.06176516 -17.08647014 32.73710755 -19.375 35.6875 C-19.85388672 36.27917969 -20.33277344 36.87085938 -20.82617188 37.48046875 C-21.80638966 38.69369979 -22.78037687 39.91199138 -23.74804688 41.13525391 C-25.67738439 43.57292397 -27.65199228 45.9726147 -29.625 48.375 C-30.33527344 49.24769531 -31.04554688 50.12039063 -31.77734375 51.01953125 C-36.16503634 56.35630877 -40.64885012 61.61238641 -45.125 66.875 C-44.19217231 69.27369978 -43.28877125 71.58565151 -42.01953125 73.828125 C-39.67577461 79.19113147 -40.45240976 86.67334768 -42.125 92.1875 C-44.49551789 97.59453844 -49.30242144 101.49364018 -54.51953125 104.046875 C-60.56876939 105.96957138 -67.66818158 105.93063813 -73.5 103.3125 C-79.98416139 99.48401386 -83.67225162 93.84596908 -86.125 86.875 C-86.8125 83.9375 -86.8125 83.9375 -87.125 81.875 C-89.435 81.215 -91.745 80.555 -94.125 79.875 C-93.135 78.225 -92.145 76.575 -91.125 74.875 C-89.145 75.205 -87.165 75.535 -85.125 75.875 C-84.91875 75.029375 -84.7125 74.18375 -84.5 73.3125 C-82.08353633 67.27134084 -78.04372398 62.68785892 -72.125 59.875 C-68.6015625 59.51171875 -68.6015625 59.51171875 -64.75 59.5625 C-63.48414063 59.56636719 -62.21828125 59.57023437 -60.9140625 59.57421875 C-56.98452079 59.88615144 -53.85491491 60.66542811 -50.125 61.875 C-49.60292969 61.23175781 -49.08085938 60.58851563 -48.54296875 59.92578125 C-44.28554303 54.69906421 -39.9896936 49.51219215 -35.625 44.375 C-32.0865034 40.20205717 -28.55573917 36.02345123 -25.0625 31.8125 C-24.34964844 30.95527344 -23.63679687 30.09804688 -22.90234375 29.21484375 C-21.33459932 27.15093406 -20.17637162 25.23377675 -19.125 22.875 C-20.115 21.39 -20.115 21.39 -21.125 19.875 C-21.92746888 14.57025837 -22.04306256 9.454271 -19 4.875 C-13.83154114 -1.17906557 -7.47826629 -2.69217586 0 0 Z " fill="#F5F4F2" transform="translate(763.125,310.125)"/>
<path d="M0 0 C4.28357817 2.37322013 5.79937969 4.99008569 7.75 9.4375 C8.11442233 11.09764616 8.45429418 12.76374764 8.75 14.4375 C9.66136719 14.71722656 10.57273437 14.99695313 11.51171875 15.28515625 C20.60545226 18.09423402 29.64447319 21.04154561 38.65307617 24.11352539 C39.9288855 24.54459595 39.9288855 24.54459595 41.23046875 24.984375 C42.35811646 25.36867676 42.35811646 25.36867676 43.50854492 25.76074219 C45.79333646 26.51398112 45.79333646 26.51398112 48.41918945 26.80566406 C49.18835693 27.01416992 49.95752441 27.22267578 50.75 27.4375 C52.5625 31 52.5625 31 53.75 34.4375 C49.99160511 35.6902983 48.71228481 34.98703654 45.0078125 33.70703125 C43.85796875 33.31580078 42.708125 32.92457031 41.5234375 32.52148438 C40.31945312 32.10189453 39.11546875 31.68230469 37.875 31.25 C22.08200099 25.32649215 22.08200099 25.32649215 5.75 21.4375 C3.72641667 22.56158961 3.72641667 22.56158961 2.0625 24.3125 C-2.19955415 28.3760993 -4.84348991 28.79099364 -10.70703125 28.71484375 C-14.48091373 28.30325288 -16.49007187 26.99548217 -19.25 24.4375 C-22.32992689 20.12560235 -22.83163843 16.08132953 -22.66796875 10.90625 C-21.80018789 5.78066584 -18.80476652 2.74014222 -14.9375 -0.5 C-9.65193198 -2.58964317 -5.10974373 -2.20756154 0 0 Z " fill="#F09933" transform="translate(612.25,307.5625)"/>
<path d="M0 0 C3.87551839 1.41226517 6.12878116 3.3833701 8.08203125 7.0078125 C9.35838172 10.16663422 10 12.57138062 10 16 C10.83144531 16.19335938 11.66289063 16.38671875 12.51953125 16.5859375 C13.60621094 16.84632813 14.69289063 17.10671875 15.8125 17.375 C16.89144531 17.63023437 17.97039063 17.88546875 19.08203125 18.1484375 C22 19 22 19 25 21 C25 21.99 25 22.98 25 24 C26.98 24.33 28.96 24.66 31 25 C31 25.33 31 25.66 31 26 C28.03 26.495 28.03 26.495 25 27 C25 26.34 25 25.68 25 25 C24.27554688 24.87882812 23.55109375 24.75765625 22.8046875 24.6328125 C17.71502427 23.75060421 12.85116654 22.83557653 8 21 C7.773125 21.556875 7.54625 22.11375 7.3125 22.6875 C5.04399551 26.68438886 2.38100054 29.53966649 -2 31 C-6.80884896 31.65236323 -10.74785403 31.61472243 -14.875 28.875 C-18.67275484 25.71167289 -20.60444469 22.64444278 -21.34765625 17.67578125 C-21.73001234 11.2737678 -20.22038542 6.85047113 -16 2 C-11.09285599 -1.27142934 -5.72826086 -0.65564432 0 0 Z " fill="#F2AA3C" transform="translate(606,354)"/>
<path d="M0 0 C2.61581165 0.48463254 5.21095095 1.00997841 7.8125 1.5625 C8.55048828 1.69462891 9.28847656 1.82675781 10.04882812 1.96289062 C15.41643097 3.15299261 15.41643097 3.15299261 17.18115234 5.71435547 C18.01171875 7.65234375 18.01171875 7.65234375 19 11 C15.43364762 12.18878413 14.39620485 11.72013686 10.89453125 10.56640625 C9.91162109 10.24736328 8.92871094 9.92832031 7.91601562 9.59960938 C6.89185547 9.25736328 5.86769531 8.91511719 4.8125 8.5625 C3.77673828 8.22412109 2.74097656 7.88574219 1.67382812 7.53710938 C-0.8868234 6.69929252 -3.4444802 5.85331644 -6 5 C-6 4.67 -6 4.34 -6 4 C-4.35 4 -2.7 4 -1 4 C-0.67 2.68 -0.34 1.36 0 0 Z " fill="#F5BB5E" transform="translate(647,331)"/>
<path d="M0 0 C0 0.99 0 1.98 0 3 C-5.34883721 8 -5.34883721 8 -8 8 C-9.67745682 8.63903117 -11.34561387 9.30341637 -13 10 C-13.33 9.01 -13.66 8.02 -14 7 C-13.01 6.67 -12.02 6.34 -11 6 C-22.22 5.67 -33.44 5.34 -45 5 C-45 4.67 -45 4.34 -45 4 C-43.221698 3.97812622 -43.221698 3.97812622 -41.4074707 3.95581055 C-36.99961523 3.89774062 -32.59226596 3.82050816 -28.18481445 3.73754883 C-26.27897369 3.70434038 -24.37303554 3.67629575 -22.46704102 3.65356445 C-19.72369985 3.61994332 -16.98124778 3.56762405 -14.23828125 3.51171875 C-12.96456413 3.50213387 -12.96456413 3.50213387 -11.66511536 3.49235535 C-6.94697828 3.37568188 -3.88899488 2.96946365 0 0 Z " fill="#495C80" transform="translate(472,548)"/>
<path d="M0 0 C0.66 0.33 1.32 0.66 2 1 C-2.12732629 7.6699485 -6.44286716 13.79827211 -11.75 19.5625 C-12.20930908 20.06233398 -12.66861816 20.56216797 -13.1418457 21.07714844 C-15.58779404 23.67655234 -18.06646654 25.96434711 -21 28 C-20.45912682 24.21388773 -18.88277668 22.44599233 -16 20 C-15.34 20 -14.68 20 -14 20 C-14 19.34 -14 18.68 -14 18 C-13.34 18 -12.68 18 -12 18 C-12 17.34 -12 16.68 -12 16 C-11.34 16 -10.68 16 -10 16 C-9.34 14.35 -8.68 12.7 -8 11 C-7.34 11 -6.68 11 -6 11 C-6 10.01 -6 9.02 -6 8 C-5.34 8 -4.68 8 -4 8 C-3.71125 7.05125 -3.4225 6.1025 -3.125 5.125 C-2 2 -2 2 0 0 Z " fill="#59688A" transform="translate(541,572)"/>
<path d="M0 0 C0.66 0 1.32 0 2 0 C2 6.66666667 2 13.33333333 2 20 C1.34 20 0.68 20 0 20 C-0.33 20.99 -0.66 21.98 -1 23 C-1.66871629 20.91954932 -2.12883234 19.48772244 -1.5625 17.34375 C-0.76317333 14.0132222 -0.63397662 10.65774195 -0.4375 7.25 C-0.39431641 6.55261719 -0.35113281 5.85523438 -0.30664062 5.13671875 C-0.20110404 3.42468078 -0.1001009 1.71236439 0 0 Z " fill="#5F6D8D" transform="translate(485,507)"/>
<path d="M0 0 C2.31 0.66 4.62 1.32 7 2 C7.33 3.32 7.66 4.64 8 6 C10.97 6.495 10.97 6.495 14 7 C14 7.33 14 7.66 14 8 C12.02 8.33 10.04 8.66 8 9 C8 8.34 8 7.68 8 7 C4.37 6.34 0.74 5.68 -3 5 C-1.68 4.34 -0.36 3.68 1 3 C0.67 2.01 0.34 1.02 0 0 Z " fill="#F5CE95" transform="translate(623,372)"/>
<path d="M0 0 C0.66 0 1.32 0 2 0 C0.97625254 9.86140414 -2.84052964 18.13610193 -7 27 C-8.18504475 23.44486575 -7.79812031 22.97353748 -6.3125 19.6875 C-3.59373481 13.29319162 -1.81331922 6.69384861 0 0 Z " fill="#58698B" transform="translate(551,544)"/>
<path d="M0 0 C0.66 0.33 1.32 0.66 2 1 C0.66786942 4.5865054 -0.76916059 7.87682483 -3 11 C-3.99 11 -4.98 11 -6 11 C-6 9.02 -6 7.04 -6 5 C-5.01 5.33 -4.02 5.66 -3 6 C-2.690625 5.195625 -2.38125 4.39125 -2.0625 3.5625 C-1 1 -1 1 0 0 Z " fill="#172F5A" transform="translate(325,543)"/>
<path d="M0 0 C0.33 0.99 0.66 1.98 1 3 C0.484375 3.495 -0.03125 3.99 -0.5625 4.5 C-3.32201483 7.33027162 -5.81205597 10.33409058 -8.31640625 13.390625 C-10 15 -10 15 -13 15 C-8.71 10.05 -4.42 5.1 0 0 Z " fill="#F9C33B" transform="translate(741,349)"/>
<path d="M0 0 C0.33 0.99 0.66 1.98 1 3 C-2.23849727 8.3637611 -6.09974003 12.14475224 -11 16 C-11.66 15.67 -12.32 15.34 -13 15 C-12.48050781 14.50371094 -11.96101562 14.00742187 -11.42578125 13.49609375 C-7.07159457 9.25458473 -3.37180778 5.05771167 0 0 Z " fill="#F7BA3F" transform="translate(668,344)"/>
<path d="M0 0 C0.33 4.62 0.66 9.24 1 14 C-1.69109304 10.41187594 -3.10307428 8.30524344 -4 4 C-1.78947368 0 -1.78947368 0 0 0 Z " fill="#1B3964" transform="translate(386,500)"/>
<path d="M0 0 C4.23429756 1.31061591 8.07407404 2.94356259 12 5 C12 5.66 12 6.32 12 7 C10.54096742 6.69078116 9.08279278 6.37751201 7.625 6.0625 C6.81289063 5.88847656 6.00078125 5.71445312 5.1640625 5.53515625 C3 5 3 5 1 4 C0.375 1.9375 0.375 1.9375 0 0 Z " fill="#F6EAD5" transform="translate(630,374)"/>
<path d="M0 0 C5.35152885 0.32433508 8.28280043 3.49704824 12 7 C11.67 7.99 11.34 8.98 11 10 C9.16375669 8.52444734 7.3310715 7.04446569 5.5 5.5625 C4.4790625 4.73878906 3.458125 3.91507812 2.40625 3.06640625 C1.6121875 2.38449219 0.818125 1.70257813 0 1 C0 0.67 0 0.34 0 0 Z " fill="#F4B836" transform="translate(650,325)"/>
<path d="M0 0 C1.54571278 2.31856917 2.79618552 4.50638429 4 7 C1 8 1 8 -2.1875 6.5625 C-3.115625 6.046875 -4.04375 5.53125 -5 5 C-3.68 4.67 -2.36 4.34 -1 4 C-1.33 3.01 -1.66 2.02 -2 1 C-1.34 0.67 -0.68 0.34 0 0 Z " fill="#F6BB4C" transform="translate(662,335)"/>
<path d="M0 0 C0.66 0.66 1.32 1.32 2 2 C0.71580959 3.67243402 -0.57757185 5.33781447 -1.875 7 C-2.59429688 7.928125 -3.31359375 8.85625 -4.0546875 9.8125 C-4.69664062 10.534375 -5.33859375 11.25625 -6 12 C-6.66 12 -7.32 12 -8 12 C-6.92226346 8.76679037 -5.55050148 6.96335641 -3.4375 4.3125 C-2.79683594 3.50425781 -2.15617188 2.69601562 -1.49609375 1.86328125 C-1.00238281 1.24839844 -0.50867188 0.63351562 0 0 Z " fill="#F5BB3E" transform="translate(719,361)"/>
<path d="M0 0 C0 3 0 3 -1.25 4.546875 C-3.09099366 6.07555724 -4.86744958 7.16756911 -7 8.25 C-8.0209375 8.78367187 -8.0209375 8.78367187 -9.0625 9.328125 C-11 10 -11 10 -14 9 C-9.38 6.03 -4.76 3.06 0 0 Z " fill="#F28E35" transform="translate(594,629)"/>
<path d="M0 0 C0.66 0.33 1.32 0.66 2 1 C-0.64 4.63 -3.28 8.26 -6 12 C-6.33 11.34 -6.66 10.68 -7 10 C-7.66 9.67 -8.32 9.34 -9 9 C-8.43410156 8.51789063 -7.86820313 8.03578125 -7.28515625 7.5390625 C-6.55167969 6.90742188 -5.81820312 6.27578125 -5.0625 5.625 C-4.33160156 4.99851562 -3.60070312 4.37203125 -2.84765625 3.7265625 C-0.91619094 2.12252286 -0.91619094 2.12252286 0 0 Z " fill="#F5E9D9" transform="translate(628,428)"/>
<path d="M0 0 C3.63 0 7.26 0 11 0 C9.515 1.98 9.515 1.98 8 4 C3.91927658 3.44855089 3.08669204 3.08669204 0 0 Z " fill="#EA8625" transform="translate(503,408)"/>
<path d="M0 0 C2.875 0.75 2.875 0.75 6 2 C6.66 3.32 7.32 4.64 8 6 C5.03 6 2.06 6 -1 6 C-0.01 5.67 0.98 5.34 2 5 C2 4.01 2 3.02 2 2 C1.34 2 0.68 2 0 2 C0 1.34 0 0.68 0 0 Z " fill="#F1B356" transform="translate(617,370)"/>
<path d="M0 0 C2.39763185 2.39763185 2.34280586 3.33273498 2.625 6.625 C2.69976563 7.44226563 2.77453125 8.25953125 2.8515625 9.1015625 C2.90054688 9.72804688 2.94953125 10.35453125 3 11 C2.01 11.66 1.02 12.32 0 13 C0 8.71 0 4.42 0 0 Z " fill="#7F869E" transform="translate(530,544)"/>
<path d="M0 0 C0.66 0.33 1.32 0.66 2 1 C1.01 2.485 1.01 2.485 0 4 C2.475 7.465 2.475 7.465 5 11 C2.04590299 9.62845496 -0.44008376 8.01136276 -3 6 C-1.125 1.125 -1.125 1.125 0 0 Z " fill="#EB8528" transform="translate(593,482)"/>
<path d="M0 0 C0.66 0 1.32 0 2 0 C0.61811547 3.21043882 -0.92421903 5.04936365 -3.625 7.25 C-4.57246094 8.03117188 -4.57246094 8.03117188 -5.5390625 8.828125 C-6.02117188 9.21484375 -6.50328125 9.6015625 -7 10 C-6.22976993 6.22031427 -4.97047577 4.52040369 -2 2 C-1.34 2 -0.68 2 0 2 C0 1.34 0 0.68 0 0 Z " fill="#435479" transform="translate(527,590)"/>
<path d="M0 0 C0.33 0.66 0.66 1.32 1 2 C0.01 3.485 0.01 3.485 -1 5 C-1.24055468 7.05709596 -1.24055468 7.05709596 -1.125 9.1875 C-1.08375 10.445625 -1.0425 11.70375 -1 13 C-2.32 11.35 -3.64 9.7 -5 8 C-3.62845496 5.04590299 -2.01136276 2.55991624 0 0 Z " fill="#F6BB40" transform="translate(722,371)"/>
<path d="M0 0 C0.66 0.33 1.32 0.66 2 1 C1.34 1.61875 0.68 2.2375 0 2.875 C-2.2284549 4.75637427 -2.2284549 4.75637427 -2 7 C-4.475 6.01 -4.475 6.01 -7 5 C-2.25 1.125 -2.25 1.125 0 0 Z " fill="#E6844B" transform="translate(511,620)"/>
<path d="M0 0 C0.66 0.33 1.32 0.66 2 1 C2 1.66 2 2.32 2 3 C2.99 2.67 3.98 2.34 5 2 C5.33 2.99 5.66 3.98 6 5 C2.31245243 4.50168276 0.39509338 3.89932357 -2 1 C-1.34 0.67 -0.68 0.34 0 0 Z " fill="#152652" transform="translate(270,583)"/>
<path d="M0 0 C3.375 -0.125 3.375 -0.125 7 0 C7.66 0.66 8.32 1.32 9 2 C8.01 3.485 8.01 3.485 7 5 C6.401875 4.54625 5.80375 4.0925 5.1875 3.625 C3.49409348 2.36704087 1.75522914 1.17015276 0 0 Z " fill="#F8CB4E" transform="translate(760,309)"/>
<path d="M0 0 C0.99 0.33 1.98 0.66 3 1 C1.35 2.65 -0.3 4.3 -2 6 C-2.99 5.67 -3.98 5.34 -5 5 C-4.34 5 -3.68 5 -3 5 C-2.5359375 4.0409375 -2.5359375 4.0409375 -2.0625 3.0625 C-1 1 -1 1 0 0 Z " fill="#F09E3B" transform="translate(610,308)"/>
</svg>
